<svg width="271" height="87" viewBox="0 0 271 87" fill="none" xmlns="http://www.w3.org/2000/svg">
<mask id="mask0_192_808" style="mask-type:luminance" maskUnits="userSpaceOnUse" x="7" y="33" width="77" height="54">
<path d="M7.43579 33.64H83.0678V86.072H7.43579V33.64Z" fill="white"/>
</mask>
<g mask="url(#mask0_192_808)">
<mask id="mask1_192_808" style="mask-type:luminance" maskUnits="userSpaceOnUse" x="4" y="0" width="81" height="91">
<path d="M6.00756 0L84.12 1.46359L82.4615 90.0133L4.34912 88.5506L6.00756 0Z" fill="white"/>
</mask>
<g mask="url(#mask1_192_808)">
<mask id="mask2_192_808" style="mask-type:luminance" maskUnits="userSpaceOnUse" x="4" y="0" width="81" height="91">
<path d="M6.00756 0L84.12 1.46359L82.4615 90.0133L4.34912 88.5506L6.00756 0Z" fill="white"/>
</mask>
<g mask="url(#mask2_192_808)">
<path fill-rule="evenodd" clip-rule="evenodd" d="M9.435 33.7877C19.8134 34.5435 27.2782 38.7422 35.5133 44.1389C35.8404 44.3528 36.27 44.2939 36.5292 44.0157L42.8829 48.1998C42.1533 50.3304 42.9218 52.7818 44.8857 54.075L55.7661 61.2389C56.1703 61.5045 56.7195 61.3921 56.985 60.9879C57.2524 60.5837 57.1391 60.0345 56.7349 59.7681C53.7987 57.836 50.8624 55.902 47.9271 53.969C47.6606 53.7932 47.5863 53.4334 47.7621 53.1679C47.9361 52.9014 48.2977 52.8271 48.5633 53.002L57.372 58.802C57.7753 59.0676 58.3245 58.9552 58.5909 58.5501C58.8573 58.1459 58.7441 57.5967 58.339 57.3312L49.5311 51.5312C49.2647 51.3563 49.1913 50.9965 49.3662 50.7301C49.542 50.4645 49.9018 50.3902 50.1682 50.5651L58.9761 56.3651C59.3803 56.6307 59.9294 56.5174 60.195 56.1132C60.4614 55.709 60.3481 55.1607 59.9449 54.8934L51.1361 49.0943C50.8697 48.9185 50.7963 48.5587 50.9712 48.2923C51.147 48.0267 51.5068 47.9524 51.7732 48.1273L60.581 53.9273C60.9852 54.1928 61.5344 54.0796 61.8008 53.6754C62.0664 53.2712 61.9531 52.722 61.5498 52.4565L50.6676 45.2926C48.7046 43.9993 46.149 44.2613 44.4806 45.7738L38.126 41.5905C38.2791 41.2425 38.1686 40.8175 37.8369 40.6082C28.527 34.7366 44.8957 35.2649 83.0497 55.7289C76.8174 73.7017 62.0954 89.6073 48.701 72.8942C48.4563 72.5888 47.9869 72.5979 47.6806 72.8226L42.2295 67.5047C43.3777 65.5545 43.1167 63.0532 40.0191 60.0309C36.2718 56.3751 29.7903 53.341 27.7621 55.419C25.7348 57.497 28.9275 63.9015 32.6758 67.5582C35.7733 70.5797 38.28 70.779 40.2013 69.5837L45.6524 74.9007C45.4358 75.2124 45.4838 75.6338 45.7503 75.9202C50.0169 80.5167 54.2001 84.9147 50.9512 85.9333C49.8048 86.2931 48.5596 84.4217 35.4516 80.0137C26.7852 77.5442 21.5652 76.3932 20.6517 75.6746C19.7373 74.955 20.3526 72.8598 21.4637 72.4547C22.1071 72.22 23.5082 72.0487 24.573 71.9472C4.80769 64.0538 6.11813 46.8096 9.435 33.7877Z" fill="#FB6218"/>
</g>
</g>
</g>
<mask id="mask3_192_808" style="mask-type:luminance" maskUnits="userSpaceOnUse" x="39" y="0" width="30" height="37">
<path d="M39.4517 0.928001H68.6837V36.888H39.4517V0.928001Z" fill="white"/>
</mask>
<g mask="url(#mask3_192_808)">
<mask id="mask4_192_808" style="mask-type:luminance" maskUnits="userSpaceOnUse" x="4" y="0" width="81" height="91">
<path d="M6.00731 0L84.1197 1.46359L82.4613 90.0133L4.34888 88.5506L6.00731 0Z" fill="white"/>
</mask>
<g mask="url(#mask4_192_808)">
<mask id="mask5_192_808" style="mask-type:luminance" maskUnits="userSpaceOnUse" x="4" y="0" width="81" height="91">
<path d="M6.00731 0L84.1197 1.46359L82.4613 90.0133L4.34888 88.5506L6.00731 0Z" fill="white"/>
</mask>
<g mask="url(#mask5_192_808)">
<path fill-rule="evenodd" clip-rule="evenodd" d="M47.7448 36.4657C47.424 36.0479 46.824 35.0646 46.4053 33.592C45.9866 32.1193 45.7492 30.1564 46.1588 28.4245C46.5676 26.6936 47.6233 25.1938 49.1631 23.5489C50.7019 21.9041 52.7228 20.1151 54.1003 18.6814C55.4769 17.2478 56.2101 16.1702 56.4239 15.3283C56.6378 14.4873 56.3324 13.881 55.5594 13.7451C54.7872 13.6101 53.5466 13.9445 51.4939 14.5281C49.4422 15.1126 46.5775 15.9464 44.4487 15.9391C42.32 15.931 40.9271 15.0818 40.2057 13.7451C39.4834 12.4093 39.4317 10.585 39.7544 8.92294C40.077 7.26088 40.7748 5.76103 41.933 4.36178C43.0912 2.96253 44.7116 1.66478 45.4656 1.21438C46.2186 0.763064 46.1072 1.16 45.8933 2.19675C45.6803 3.23441 45.3668 4.91278 45.4347 6.21416C45.5036 7.51553 45.9531 8.44081 46.8539 8.86403C47.7538 9.28635 49.1041 9.20841 51.1369 8.54322C53.1687 7.87894 55.8838 6.62831 58.2654 5.76013C60.6471 4.89194 62.6961 4.40619 64.3029 4.58381C65.9087 4.76325 67.0733 5.60606 67.791 7.0325C68.5097 8.45894 68.7825 10.469 68.5858 12.5733C68.3891 14.6785 67.724 16.878 66.5803 18.6026C65.4366 20.3272 63.8153 21.576 61.5732 22.813C59.3303 24.0501 56.4674 25.2744 54.5326 26.4571C52.5968 27.6388 51.59 28.7789 50.681 30.4591C49.7721 32.1402 48.961 34.3632 48.535 35.5486C48.1091 36.7348 48.0665 36.8835 47.7457 36.4657H47.7448Z" fill="#FB6218"/>
</g>
</g>
</g>
<mask id="mask6_192_808" style="mask-type:luminance" maskUnits="userSpaceOnUse" x="51" y="30" width="14" height="9">
<path d="M51.2837 30.624H64.2757V38.512H51.2837V30.624Z" fill="white"/>
</mask>
<g mask="url(#mask6_192_808)">
<mask id="mask7_192_808" style="mask-type:luminance" maskUnits="userSpaceOnUse" x="4" y="0" width="81" height="91">
<path d="M6.00756 0L84.12 1.46359L82.4615 90.0133L4.34912 88.5506L6.00756 0Z" fill="white"/>
</mask>
<g mask="url(#mask7_192_808)">
<mask id="mask8_192_808" style="mask-type:luminance" maskUnits="userSpaceOnUse" x="4" y="0" width="81" height="91">
<path d="M6.00756 0L84.12 1.46359L82.4615 90.0133L4.34912 88.5506L6.00756 0Z" fill="white"/>
</mask>
<g mask="url(#mask8_192_808)">
<path fill-rule="evenodd" clip-rule="evenodd" d="M51.4587 38.1368C51.5358 37.864 51.9545 37.3719 52.8815 36.791C53.8086 36.2101 55.2451 35.5404 56.4612 34.6686C57.6765 33.7977 58.6698 32.7238 59.6766 31.919C60.6835 31.1143 61.7021 30.5778 62.5467 30.6775C63.3913 30.7772 64.0611 31.513 64.2169 32.4111C64.3728 33.3092 64.0139 34.3686 63.1267 35.2821C62.2395 36.1956 60.823 36.9632 59.257 37.4753C57.691 37.9882 55.9737 38.2465 54.724 38.377C53.4742 38.5093 52.6912 38.512 52.1683 38.4875C51.6454 38.4631 51.3817 38.4096 51.4587 38.1368Z" fill="#FB6218"/>
</g>
</g>
</g>
<mask id="mask9_192_808" style="mask-type:luminance" maskUnits="userSpaceOnUse" x="32" y="20" width="11" height="16">
<path d="M32.9558 20.648H42.6998V35.496H32.9558V20.648Z" fill="white"/>
</mask>
<g mask="url(#mask9_192_808)">
<mask id="mask10_192_808" style="mask-type:luminance" maskUnits="userSpaceOnUse" x="4" y="0" width="81" height="91">
<path d="M6.00756 0L84.12 1.46359L82.4615 90.0133L4.34912 88.5506L6.00756 0Z" fill="white"/>
</mask>
<g mask="url(#mask10_192_808)">
<mask id="mask11_192_808" style="mask-type:luminance" maskUnits="userSpaceOnUse" x="4" y="0" width="81" height="91">
<path d="M6.00756 0L84.12 1.46359L82.4615 90.0133L4.34912 88.5506L6.00756 0Z" fill="white"/>
</mask>
<g mask="url(#mask11_192_808)">
<path fill-rule="evenodd" clip-rule="evenodd" d="M42.4906 35.1824C42.5912 34.8734 42.506 34.1375 41.9921 32.9911C41.4783 31.8456 40.5349 30.2905 39.9304 28.6837C39.3278 27.0769 39.0641 25.4185 38.6173 24.0093C38.1705 22.5992 37.5397 21.4373 36.6706 20.9942C35.8016 20.551 34.6932 20.8256 33.9727 21.5823C33.2514 22.34 32.917 23.5797 33.1807 25.017C33.4444 26.4553 34.3062 28.0901 35.4735 29.5773C36.6407 31.0663 38.1143 32.4075 39.2226 33.3292C40.331 34.2517 41.0759 34.7547 41.5898 35.0646C42.1045 35.3746 42.39 35.4915 42.4906 35.1824Z" fill="#FB6218"/>
</g>
</g>
</g>
<path d="M262.286 74.1135V65.528H270.764V74.1135H262.286Z" fill="#FB6218"/>
<path d="M258.825 74.1135H249.488L241.896 60.9133L234.222 74.1135H224.859L236.825 53.9375L225.61 35.6396H234.973L241.842 47.4984L248.764 35.6396H257.886L246.832 54.2326L258.825 74.1135Z" fill="#411A07"/>
<path d="M212.785 33.7347H220.807V74.1135H214.878L213.939 71.6452C211.309 73.881 208.206 74.9989 204.629 74.9989C200.139 74.9989 196.419 73.5054 193.468 70.5183C190.516 67.5313 189.041 63.784 189.041 59.2766C189.041 57.0587 189.434 54.9839 190.221 53.0521C191.008 51.1025 192.081 49.4391 193.441 48.0618C194.818 46.6845 196.473 45.6024 198.404 44.8154C200.336 44.0105 202.411 43.6081 204.629 43.6081C207.652 43.6081 210.37 44.4219 212.785 46.0496V33.7347ZM199.504 65.0987C201.043 66.6369 202.974 67.4061 205.3 67.4061C207.625 67.4061 209.548 66.6369 211.068 65.0987C212.606 63.5426 213.375 61.6019 213.375 59.2766C213.375 56.9514 212.606 55.0196 211.068 53.4814C209.548 51.9253 207.625 51.1472 205.3 51.1472C202.974 51.1472 201.043 51.9163 199.504 53.4546C197.984 54.9928 197.224 56.9335 197.224 59.2766C197.224 61.6198 197.984 63.5605 199.504 65.0987Z" fill="#411A07"/>
<path d="M169.187 74.9452C166.164 74.9452 163.427 74.2655 160.977 72.9062C158.526 71.5468 156.604 69.6687 155.208 67.2719C153.831 64.8751 153.143 62.21 153.143 59.2766C153.143 56.3075 153.831 53.6334 155.208 51.2545C156.604 48.8577 158.526 46.9886 160.977 45.6471C163.427 44.2877 166.164 43.6081 169.187 43.6081C172.192 43.6081 174.919 44.2877 177.37 45.6471C179.82 46.9886 181.743 48.8577 183.138 51.2545C184.533 53.6513 185.231 56.3254 185.231 59.2766C185.231 62.21 184.533 64.8751 183.138 67.2719C181.743 69.6687 179.82 71.5468 177.37 72.9062C174.919 74.2655 172.192 74.9452 169.187 74.9452ZM163.499 65.1524C164.983 66.6548 166.879 67.4061 169.187 67.4061C171.494 67.4061 173.39 66.6548 174.875 65.1524C176.359 63.632 177.102 61.6734 177.102 59.2766C177.102 56.8798 176.359 54.9302 174.875 53.4277C173.39 51.9074 171.494 51.1472 169.187 51.1472C166.879 51.1472 164.983 51.9074 163.499 53.4277C162.014 54.9302 161.272 56.8798 161.272 59.2766C161.272 61.6734 162.014 63.632 163.499 65.1524Z" fill="#411A07"/>
<path d="M133.289 74.9452C130.266 74.9452 127.529 74.2655 125.079 72.9062C122.628 71.5468 120.705 69.6687 119.31 67.2719C117.933 64.8751 117.244 62.21 117.244 59.2766C117.244 56.3075 117.933 53.6334 119.31 51.2545C120.705 48.8577 122.628 46.9886 125.079 45.6471C127.529 44.2877 130.266 43.6081 133.289 43.6081C136.294 43.6081 139.021 44.2877 141.472 45.6471C143.922 46.9886 145.845 48.8577 147.24 51.2545C148.635 53.6513 149.333 56.3254 149.333 59.2766C149.333 62.21 148.635 64.8751 147.24 67.2719C145.845 69.6687 143.922 71.5468 141.472 72.9062C139.021 74.2655 136.294 74.9452 133.289 74.9452ZM127.601 65.1524C129.085 66.6548 130.981 67.4061 133.289 67.4061C135.596 67.4061 137.492 66.6548 138.976 65.1524C140.461 63.632 141.203 61.6734 141.203 59.2766C141.203 56.8798 140.461 54.9302 138.976 53.4277C137.492 51.9074 135.596 51.1472 133.289 51.1472C130.981 51.1472 129.085 51.9074 127.601 53.4277C126.116 54.9302 125.374 56.8798 125.374 59.2766C125.374 61.6734 126.116 63.632 127.601 65.1524Z" fill="#411A07"/>
<path d="M113.783 43.3934H99.1344V51.8448H112.361V59.384H99.1344V74.1135H90.8171V35.6396H113.783V43.3934Z" fill="#411A07"/>
</svg>
